<svg xmlns="http://www.w3.org/2000/svg" xmlns:xlink="http://www.w3.org/1999/xlink" width="598.03" height="411.339" viewBox="0 0 598.03 411.339"><defs><linearGradient id="a" x1="0.5" x2="0.5" y2="1" gradientUnits="objectBoundingBox"><stop offset="0" stop-color="#7928ca"/><stop offset="1" stop-color="#29a3d8"/></linearGradient></defs><g transform="translate(-182.787 -183.378)"><g transform="translate(230.183 418.013)"><path d="M735.4,355.574H537.342a3.672,3.672,0,0,1-3.668-3.668V182.537a3.672,3.672,0,0,1,3.668-3.668H735.4a3.672,3.672,0,0,1,3.668,3.668V351.905a3.672,3.672,0,0,1-3.668,3.668ZM537.342,180.333a2.2,2.2,0,0,0-2.2,2.2V351.905a2.2,2.2,0,0,0,2.2,2.2H735.4a2.2,2.2,0,0,0,2.2-2.2V182.537a2.2,2.2,0,0,0-2.2-2.2Z" transform="translate(-533.674 -178.869)" fill="#e6e6e6"/><circle cx="14.94" cy="14.94" r="14.94" transform="translate(19.501 131.646)" fill="#e6e6e6"/><path d="M632.89,377.72a2.49,2.49,0,1,0,0,4.98H750.281a2.49,2.49,0,0,0,0-4.98Z" transform="translate(-563.942 -241.094)" fill="#e6e6e6"/><path d="M632.89,399.466a2.49,2.49,0,1,0,0,4.98H683.4a2.49,2.49,0,1,0,0-4.98Z" transform="translate(-563.942 -247.899)" fill="#e6e6e6"/><path d="M803.891,307.146H605.83a3.672,3.672,0,0,1-3.668-3.668v-86.92a3.672,3.672,0,0,1,3.668-3.668H803.891a3.672,3.672,0,0,1,3.668,3.668v86.92a3.672,3.672,0,0,1-3.668,3.668Z" transform="translate(-555.106 -189.515)" fill="url(#a)"/><path d="M665.072,256.985a2.49,2.49,0,1,0,0,4.98H782.464a2.49,2.49,0,0,0,0-4.98Z" transform="translate(-574.013 -203.313)" fill="#fff"/><path d="M665.072,277.985a2.49,2.49,0,1,0,0,4.98H782.464a2.49,2.49,0,0,0,0-4.98Z" transform="translate(-574.013 -209.885)" fill="#fff"/><path d="M665.072,298.731a2.49,2.49,0,1,0,0,4.98h50.514a2.49,2.49,0,1,0,0-4.98Z" transform="translate(-574.013 -216.377)" fill="#fff"/></g><rect width="598.03" height="1.374" transform="translate(182.787 593.052)" fill="#3f3d56"/><g transform="translate(500.203 536.586)"><path d="M791.4,589.336H593.342a3.673,3.673,0,0,1-3.668-3.668V536.537a3.672,3.672,0,0,1,3.668-3.668H791.4a3.672,3.672,0,0,1,3.668,3.668v49.131a3.672,3.672,0,0,1-3.668,3.668Zm-198.061-55a2.2,2.2,0,0,0-2.2,2.2v49.131a2.2,2.2,0,0,0,2.2,2.2H791.4a2.2,2.2,0,0,0,2.2-2.2V536.537a2.2,2.2,0,0,0-2.2-2.2Z" transform="translate(-589.674 -532.869)" fill="#e6e6e6"/><circle cx="14.94" cy="14.94" r="14.94" transform="translate(19.502 11.408)" fill="#e6e6e6"/><path d="M688.89,556.72a2.49,2.49,0,0,0,0,4.98H806.281a2.49,2.49,0,0,0,0-4.98Z" transform="translate(-619.942 -540.333)" fill="#e6e6e6"/><path d="M688.89,578.466a2.49,2.49,0,1,0,0,4.98H739.4a2.49,2.49,0,0,0,0-4.98Z" transform="translate(-619.942 -547.137)" fill="#e6e6e6"/></g><g transform="matrix(0.914, 0.407, -0.407, 0.914, 505.716, 401.718)"><path d="M201.729,56.467H3.668A3.672,3.672,0,0,1,0,52.8V3.668A3.672,3.672,0,0,1,3.668,0H201.729A3.672,3.672,0,0,1,205.4,3.668V52.8a3.672,3.672,0,0,1-3.668,3.668ZM3.668,1.464a2.2,2.2,0,0,0-2.2,2.2V52.794a2.2,2.2,0,0,0,2.2,2.2H201.729a2.2,2.2,0,0,0,2.2-2.2V3.668a2.2,2.2,0,0,0-2.2-2.2Z" transform="translate(0)" fill="#e6e6e6"/><circle cx="14.94" cy="14.94" r="14.94" transform="translate(19.502 11.408)" fill="#e6e6e6"/><path d="M2.49,0a2.49,2.49,0,0,0,0,4.98H119.881a2.49,2.49,0,1,0,0-4.98Z" transform="translate(66.458 16.387)" fill="#e6e6e6"/><path d="M2.49,0a2.49,2.49,0,0,0,0,4.98H53A2.49,2.49,0,1,0,53,0Z" transform="translate(66.458 31.329)" fill="#e6e6e6"/></g><g transform="translate(312.493 360.221) rotate(-4.992)"><path d="M201.729,56.467H3.668A3.672,3.672,0,0,1,0,52.8V3.668A3.672,3.672,0,0,1,3.668,0H201.729A3.672,3.672,0,0,1,205.4,3.668V52.8a3.672,3.672,0,0,1-3.668,3.668ZM3.668,1.464a2.2,2.2,0,0,0-2.2,2.2V52.794a2.2,2.2,0,0,0,2.2,2.2H201.729a2.2,2.2,0,0,0,2.2-2.2V3.668a2.2,2.2,0,0,0-2.2-2.2Z" transform="translate(0)" fill="#e6e6e6"/><circle cx="14.94" cy="14.94" r="14.94" transform="translate(19.502 11.408)" fill="#e6e6e6"/><path d="M2.49,0a2.49,2.49,0,0,0,0,4.98H119.881a2.49,2.49,0,0,0,0-4.98Z" transform="translate(66.458 16.387)" fill="#e6e6e6"/><path d="M2.49,0a2.49,2.49,0,1,0,0,4.98H53A2.49,2.49,0,1,0,53,0Z" transform="translate(66.458 31.329)" fill="#e6e6e6"/></g><g transform="translate(421.83 183.378)"><circle cx="22.673" cy="22.673" r="22.673" transform="translate(36.455 11.825)" fill="#2f2e41"/><circle cx="16.875" cy="16.875" r="16.875" transform="translate(42.713 25.424)" fill="#feb8b8"/><path d="M879.822,628.81s-30.918-5.5-50.844,1.374l5.84,46.378-1.374,7.558,41.224-1.374-2.748-7.558Z" transform="translate(-794.584 -562.019)" fill="#feb8b8"/><path d="M859.64,678.555a207.867,207.867,0,0,1-21.3-1.349,5.835,5.835,0,0,1-5.195-5.94l.5-21.689.058-.085c5.973-8.652,3.064-14.972.824-18.374a4.4,4.4,0,0,1-.723-2.42h0c-.344-.481-.421.278-.206-.26a1.724,1.724,0,0,1,1.261-1.057l3.411-.682a1.718,1.718,0,0,1,1.964,1.134c1.146,3.42,5.613,14.422,15.848,14.42,8.551,0,11.741-12.1,11.932-14.9a1.718,1.718,0,0,1,1.713-1.6h4.26a1.8,1.8,0,0,1,1.42.642,1.7,1.7,0,0,1,.167,1.89c-4.862,8.939,2.243,23.086,2.316,23.223l.045.089-2,20.813a5.868,5.868,0,0,1-4.517,5.137A55.043,55.043,0,0,1,859.64,678.555Z" transform="translate(-795.888 -561.716)" fill="#6545cd"/><path d="M805.432,751.912a37.179,37.179,0,0,1-12.2-1.71c-3.992-1.428-6.5-3.738-7.451-6.871a9.069,9.069,0,0,1,1.1-8.02c5.905-8.843,26.4-11.337,29.148-11.631l1.457-12.139a5.862,5.862,0,0,1,5.708-5.143l34.513-.539a5.786,5.786,0,0,1,5.84,4.794l1.961,10.787-22.631,10.976L846.3,742l-.223.149C839.452,746.562,820.4,751.912,805.432,751.912Z" transform="translate(-780.917 -586.78)" fill="#2f2e41"/><path d="M882.458,726.049s31.605-4.122,29.544,12.367-26.109,28.17-62.524,0l4.122-8.245s20.612,5.5,28.857,1.374Z" transform="translate(-800.999 -592.956)" fill="#2f2e41"/><path d="M843.911,731.8s0-8.245-6.871-7.558-19.238,1.374-19.238,1.374-4.122,2.748,1.374,4.122,21.986,8.245,21.986,8.245Z" transform="translate(-790.623 -592.52)" fill="#feb8b8"/><path d="M873.478,729.8s0-8.245,6.871-7.558,19.238,1.374,19.238,1.374,4.122,2.748-1.374,4.122-21.986,8.245-21.986,8.245Z" transform="translate(-808.51 -591.894)" fill="#feb8b8"/><path d="M921.847,699.129l-10.252-35.54s-2.061-12.367-4.123-24.048-9.619-10.306-9.619-10.306l-1.374.687v18.551l1.374,17.177,13.718,37.72a7.214,7.214,0,1,0,10.276-4.244Z" transform="translate(-815.707 -562.788)" fill="#feb8b8"/><path d="M819.8,631.235s-7.558-1.374-9.619,10.306-4.122,24.048-4.122,24.048l-10.252,35.54a7.214,7.214,0,1,0,10.276,4.244l13.717-37.72,1.374-17.177V633.459A2.486,2.486,0,0,0,819.8,631.235Z" transform="translate(-783.006 -563.414)" fill="#feb8b8"/><path d="M841.335,574.647a50.186,50.186,0,0,0,21.711,7.154l-2.289-2.742a16.82,16.82,0,0,0,5.2,1.031,5.689,5.689,0,0,0,4.638-2.171,5.291,5.291,0,0,0,.355-4.888,10.023,10.023,0,0,0-3.153-3.943,18.773,18.773,0,0,0-17.473-3.123,11.221,11.221,0,0,0-5.222,3.347,6.346,6.346,0,0,0-1.28,5.882" transform="translate(-798.451 -542.714)" fill="#2f2e41"/><path d="M840.182,546.889a51.863,51.863,0,0,0-18.869-12.2c-4.561-1.69-9.526-2.734-14.295-1.774s-9.275,4.26-10.608,8.937c-1.088,3.826.036,7.945,1.724,11.547s3.942,6.939,5.308,10.677a24.369,24.369,0,0,1-24.522,32.681c4.685.628,9,2.83,13.584,4s9.985,1.092,13.388-2.188c3.6-3.471,3.673-9.115,3.5-14.114l-.776-22.292c-.132-3.789-.245-7.7,1.122-11.238s4.614-6.634,8.406-6.6c2.874.025,5.417,1.765,7.722,3.482s4.741,3.549,7.607,3.8,6.131-1.863,5.916-4.729" transform="translate(-778.92 -532.547)" fill="#2f2e41"/></g><path d="M300.716,636.277a108.829,108.829,0,0,1-5.084,30.084c-.069.226-.145.449-.219.675H276.441c.02-.2.041-.429.06-.675,1.265-14.543-5.962-102-14.682-117.135C262.583,550.454,302.187,590.068,300.716,636.277Z" transform="translate(454.601 -73.983)" fill="#e6e6e6"/><path d="M278.226,690.47c-.159.226-.324.452-.493.675H263.5c.108-.192.233-.418.378-.675,2.351-4.243,9.311-16.931,15.77-30.084,6.939-14.135,13.311-28.8,12.775-34.115C292.589,627.469,297.393,663.976,278.226,690.47Z" transform="translate(475.668 -98.093)" fill="#e6e6e6"/></g></svg>