<svg xmlns="http://www.w3.org/2000/svg" xmlns:xlink="http://www.w3.org/1999/xlink" width="865.964" height="564.088" viewBox="0 0 865.964 564.088"><defs><linearGradient id="a" x1="0.5" x2="0.5" y2="1" gradientUnits="objectBoundingBox"><stop offset="0" stop-color="#7928ca"/><stop offset="1" stop-color="#fd0081"/></linearGradient><linearGradient id="b" x1="0.5" x2="0.5" y2="1" gradientUnits="objectBoundingBox"><stop offset="0" stop-color="#ff0080"/><stop offset="1" stop-color="#7928ca"/></linearGradient></defs><g transform="translate(-266 -338)"><circle cx="71.309" cy="71.309" r="71.309" transform="translate(873.579 801.241) rotate(-45)" fill="#2f2e41"/><circle cx="24.372" cy="24.372" r="24.372" transform="matrix(0.976, -0.216, 0.216, 0.976, 939.695, 765.481)" fill="#fff"/><circle cx="8.124" cy="8.124" r="8.124" transform="matrix(0.976, -0.216, 0.216, 0.976, 949.197, 771.54)" fill="#3f3d56"/><path d="M784.287,564.117c-29.163-.054-49.636-5.263-49.587-31.684s23.73-47.8,52.893-47.743,52.765,21.516,52.717,47.938S813.452,564.17,784.287,564.117Z" transform="translate(187.313 188.917)" fill="url(#a)"/><path d="M884.41,615.4c-8.365,29.02-32.79,49.334-58.268,66.59q-5.336,3.615-10.676,7.063c-.024.011-.049.033-.073.044-.171.11-.343.22-.5.331l-2.2,1.416.4.18s.393.209-.037.034c-.128-.054-.262-.1-.39-.155-14.8-5.97-29.865-12.379-41.209-23.562-11.767-11.613-18.643-29.827-12.272-45.083a29.122,29.122,0,0,1,3.154-5.661c.517-.739,1.073-1.447,1.653-2.142a31.221,31.221,0,0,1,53.623,9.487c1.872-17.428-12.5-32.027-26.329-42.8s-29.557-22.491-32.232-39.822c-1.494-9.643,1.859-18.988,7.968-26.49.189-.228.378-.456.573-.677a45.564,45.564,0,0,1,29.286-15.711c21.216-2.2,41.823,9.025,57.236,23.776C878.923,545.957,893.919,582.411,884.41,615.4Z" transform="translate(201.776 197.756)" fill="#acacac"/><path d="M842.32,571.149a77.457,77.457,0,0,1,9.28,20.467,67.258,67.258,0,0,1,2.325,19.864A86.169,86.169,0,0,1,842.638,650.7a124.024,124.024,0,0,1-18.709,25q-5.336,3.615-10.676,7.063c-.024.01-.049.033-.073.044-.171.11-.343.22-.5.331-.735.474-1.47.948-2.2,1.416,0,0,.793.389.363.213-.128-.054-.262-.1-.39-.155A67.951,67.951,0,0,0,760.126,610.3c.517-.74,1.073-1.447,1.653-2.142a71.673,71.673,0,0,1,11.833,4.478,70.243,70.243,0,0,1,31.761,30.621,71.815,71.815,0,0,1,7.819,39.409c.608-.551,1.217-1.114,1.808-1.672,11.247-10.486,21.237-22.522,28-36.413a80.165,80.165,0,0,0,8.395-37.93c-.552-14.328-6.26-27.6-14.526-39.152a167.814,167.814,0,0,0-31.808-32.781A190.672,190.672,0,0,0,765.5,510.3a1.371,1.371,0,0,1-.69-1.759,1.166,1.166,0,0,1,.573-.677,1.015,1.015,0,0,1,.881.037c1.745.8,3.478,1.618,5.2,2.467A192.84,192.84,0,0,1,811.3,536.645C823.03,546.643,834.071,558.066,842.32,571.149Z" transform="translate(203.987 204.056)" fill="#fff"/><ellipse cx="18.053" cy="6.77" rx="18.053" ry="6.77" transform="translate(370 880.049)" fill="#2f2e41"/><ellipse cx="18.053" cy="6.77" rx="18.053" ry="6.77" transform="translate(413.327 879.147)" fill="#2f2e41"/><ellipse cx="35.655" cy="11.193" rx="35.655" ry="11.193" transform="translate(446.824 777.312) rotate(-29.962)" fill="#2f2e41"/><circle cx="71.309" cy="71.309" r="71.309" transform="translate(320.685 850.553) rotate(-80.783)" fill="#2f2e41"/><rect width="21.664" height="38.814" transform="translate(370 847.555)" fill="#2f2e41"/><rect width="21.664" height="38.814" transform="translate(413.327 847.555)" fill="#2f2e41"/><circle cx="24.372" cy="24.372" r="24.372" transform="translate(379.929 749.165)" fill="#fff"/><circle cx="8.124" cy="8.124" r="8.124" transform="translate(396.177 765.413)" fill="#3f3d56"/><path d="M379.578,539.5c-5.758-25.786,12.648-51.843,41.11-58.2s56.2,9.4,61.961,35.183-13.105,35.3-41.568,41.652S385.335,565.289,379.578,539.5Z" transform="translate(-46.254 185.773)" fill="url(#b)"/><ellipse cx="11.193" cy="35.655" rx="11.193" ry="35.655" transform="translate(285.168 753.336) rotate(-64.626)" fill="#2f2e41"/><path d="M399.782,574.91c0,6.979,17.971,20.761,37.911,20.761s38.637-19.649,38.637-26.628-18.7,1.354-38.637,1.354S399.782,567.931,399.782,574.91Z" transform="translate(-32.314 242.405)" fill="#fff"/><ellipse cx="18.053" cy="6.77" rx="18.053" ry="6.77" transform="translate(633.093 880.049)" fill="#2f2e41"/><ellipse cx="18.053" cy="6.77" rx="18.053" ry="6.77" transform="translate(589.765 879.147)" fill="#2f2e41"/><ellipse cx="11.193" cy="35.655" rx="11.193" ry="35.655" transform="translate(519.404 761.089) rotate(-60.038)" fill="#2f2e41"/><circle cx="71.309" cy="71.309" r="71.309" transform="translate(565.393 720.281)" fill="#2f2e41"/><rect width="21.664" height="38.814" transform="translate(647.534 847.555)" fill="#2f2e41"/><rect width="21.664" height="38.814" transform="translate(604.208 847.555)" fill="#2f2e41"/><circle cx="24.372" cy="24.372" r="24.372" transform="translate(595.624 749.165)" fill="#fff"/><ellipse cx="8.147" cy="8.09" rx="8.147" ry="8.09" transform="translate(596.92 770.256) rotate(-44.974)" fill="#3f3d56"/><path d="M583.891,558.139c-28.462-6.355-47.326-15.866-41.568-41.652s33.5-41.538,61.961-35.183,46.868,32.412,41.11,58.2S612.354,564.494,583.891,558.139Z" transform="translate(60.481 185.773)" fill="url(#a)"/><ellipse cx="11.193" cy="35.655" rx="11.193" ry="35.655" transform="matrix(0.966, -0.257, 0.257, 0.966, 682.145, 779.905)" fill="#2f2e41"/><path d="M562.675,570.4c-13.092,0-25.367-8.333-25.367-1.354s12.275,26.628,25.367,26.628,24.89-13.782,24.89-20.761S575.768,570.4,562.675,570.4Z" transform="translate(57.872 242.406)" fill="#fff"/><path d="M523.664,564.573h-6.333a21.421,21.421,0,0,1-21.4-21.4V537.86c0-13.169,2.495-24.195,7.416-32.772a172.39,172.39,0,0,1,20.767-27.9,122.963,122.963,0,0,0,14.12-17.019,28.628,28.628,0,0,0,4.46-15.833c0-13.21-8.606-19.631-26.311-19.631a106.836,106.836,0,0,0-29,4.353,24.414,24.414,0,0,1-31.116-23.476V394.817A23.948,23.948,0,0,1,470.4,372.867a129.287,129.287,0,0,1,52.669-10.362c18.949,0,36.055,3.183,50.844,9.459,14.815,6.291,26.521,15.161,34.79,26.366a63.5,63.5,0,0,1,12.478,38.487c0,14.869-4.059,27.819-12.065,38.491-7.918,10.564-19.269,22.128-33.738,34.374a240.427,240.427,0,0,0-21.63,20.377,37.616,37.616,0,0,0-8.993,16.742,21.34,21.34,0,0,1-21.086,17.772Z" transform="translate(4.728 108.783)" fill="url(#b)"/><path d="M510.882,576.724h-.835a39.658,39.658,0,0,1,0-79.315h.835a39.657,39.657,0,1,1,0,79.315Z" transform="translate(13.988 197.257)" fill="url(#b)"/><path d="M855.1,619.312H340.156a1.656,1.656,0,1,1,0-3.312H855.1a1.656,1.656,0,0,1,0,3.312Z" transform="translate(-72.5 275.025)" fill="#ccc"/><path d="M970.013,619.312H695.156a1.656,1.656,0,0,1,0-3.312H970.013a1.656,1.656,0,0,1,0,3.312Z" transform="translate(160.296 275.025)" fill="#ccc"/><ellipse cx="35.655" cy="11.193" rx="35.655" ry="11.193" transform="matrix(1, -0.02, 0.02, 1, 923.63, 824.292)" fill="#2f2e41"/><path d="M766.99,454.607H723.94a8.288,8.288,0,0,1-8.279-8.279v-43.05A8.288,8.288,0,0,1,723.94,395h43.05a8.288,8.288,0,0,1,8.279,8.279v43.05A8.288,8.288,0,0,1,766.99,454.607Zm-43.05-56.3a4.973,4.973,0,0,0-4.967,4.967v43.05a4.973,4.973,0,0,0,4.967,4.967h43.05a4.973,4.973,0,0,0,4.967-4.967v-43.05a4.973,4.973,0,0,0-4.967-4.967Z" transform="translate(174.828 130.101)" fill="#acacac"/><path d="M778.99,437.608H735.94a8.288,8.288,0,0,1-8.279-8.279v-43.05A8.288,8.288,0,0,1,735.94,378h43.05a8.288,8.288,0,0,1,8.279,8.279v43.05a8.288,8.288,0,0,1-8.279,8.279Zm-43.05-56.3a4.973,4.973,0,0,0-4.967,4.967v43.05a4.973,4.973,0,0,0,4.967,4.967h43.05a4.973,4.973,0,0,0,4.968-4.967v-43.05a4.972,4.972,0,0,0-4.967-4.967Z" transform="translate(182.698 118.953)" fill="#acacac"/><path d="M573.99,354.607H530.94a8.288,8.288,0,0,1-8.279-8.279v-43.05A8.288,8.288,0,0,1,530.94,295h43.05a8.288,8.288,0,0,1,8.279,8.279v43.05a8.288,8.288,0,0,1-8.279,8.279Zm-43.05-56.3a4.973,4.973,0,0,0-4.967,4.967v43.05a4.973,4.973,0,0,0,4.967,4.967h43.05a4.973,4.973,0,0,0,4.967-4.967v-43.05a4.973,4.973,0,0,0-4.967-4.967Z" transform="translate(48.266 64.525)" fill="#acacac"/><path d="M557.99,341.607H514.94a8.288,8.288,0,0,1-8.279-8.279v-43.05A8.288,8.288,0,0,1,514.94,282h43.05a8.288,8.288,0,0,1,8.279,8.279v43.05a8.288,8.288,0,0,1-8.279,8.279Zm-43.05-56.3a4.973,4.973,0,0,0-4.967,4.967v43.05a4.973,4.973,0,0,0,4.967,4.967h43.05a4.973,4.973,0,0,0,4.967-4.967v-43.05a4.973,4.973,0,0,0-4.967-4.967Z" transform="translate(37.774 56)" fill="#acacac"/><circle cx="10.708" cy="10.708" r="10.708" transform="translate(787.157 630.579)" fill="#acacac"/><circle cx="10.708" cy="10.708" r="10.708" transform="translate(356.659 592.496)" fill="#acacac"/><circle cx="10.708" cy="10.708" r="10.708" transform="translate(1078.571 685.219)" fill="#acacac"/></g></svg>