<svg xmlns="http://www.w3.org/2000/svg" xmlns:xlink="http://www.w3.org/1999/xlink" width="726.502" height="430.422" viewBox="0 0 726.502 430.422"><defs><linearGradient id="a" x1="1" y1="0.5" x2="0" y2="0.5" gradientUnits="objectBoundingBox"><stop offset="0" stop-color="#ff0080"/><stop offset="1" stop-color="#7928ca"/></linearGradient><linearGradient id="b" x1="0.5" y1="0" x2="0.5" y2="1" xlink:href="#a"/><linearGradient id="e" x1="0.5" x2="0.5" y2="1" gradientUnits="objectBoundingBox"><stop offset="0" stop-color="#7928ca"/><stop offset="1" stop-color="#fd0081"/></linearGradient></defs><g transform="translate(0 0)"><g transform="translate(92.919 0)"><rect width="507.865" height="240.991" transform="translate(0.216 13.923)" fill="#e6e6e6"/><rect width="478.82" height="201.066" transform="translate(14.739 34.589)" fill="#fff"/><rect width="507.865" height="21.576" fill="url(#a)"/><circle cx="3.999" cy="3.999" r="3.999" transform="translate(12.034 5.981)" fill="#fff"/><circle cx="3.999" cy="3.999" r="3.999" transform="translate(27.213 5.981)" fill="#fff"/><circle cx="3.999" cy="3.999" r="3.999" transform="translate(42.393 5.981)" fill="#fff"/><path d="M472.167,385.03h242V343.552a32.843,32.843,0,0,0-10.073-23.394l-.066-.064c-4.322-4.337-18.767-15.344-33.713-14.41-7.895.491-14.654,4.3-20.089,11.309-16.919,21.836-39.143,14.465-50.885,8.128-10.348-5.586-20.916-8.208-31.412-7.791-14.7.575-35.391,5.99-50.481,28.526-5.763,8.6-18.3,20.274-45.282,27.135Z" transform="translate(-358.972 -189.612)" fill="#e4e4e4"/><path d="M727.768,373.943H472.541a.8.8,0,0,1-.8-.8V250.814a.8.8,0,1,1,1.6,0V372.346H727.769a.8.8,0,1,1,0,1.6Z" transform="translate(-358.88 -177.561)" fill="#3f3d56"/><rect width="1.567" height="45.918" transform="translate(160.643 149.34)" fill="#3f3d56"/><rect width="1.567" height="67.364" transform="translate(207.544 127.895)" fill="#3f3d56"/><rect width="1.567" height="53.264" transform="translate(254.542 141.994)" fill="#3f3d56"/><rect width="1.567" height="79.113" transform="translate(301.54 116.145)" fill="#3f3d56"/><rect width="1.567" height="61.097" transform="translate(348.538 134.161)" fill="#3f3d56"/><circle cx="4.792" cy="4.792" r="4.792" transform="translate(203.631 124.182)" fill="#a131d3"/><circle cx="4.792" cy="4.792" r="4.792" transform="translate(297.627 111.649)" fill="#a131d3"/><circle cx="4.792" cy="4.792" r="4.792" transform="translate(250.629 137.499)" fill="#a131d3"/><circle cx="4.792" cy="4.792" r="4.792" transform="translate(156.633 144.548)" fill="#a131d3"/><circle cx="4.792" cy="4.792" r="4.792" transform="translate(344.625 128.882)" fill="#a131d3"/></g><g transform="translate(490.729 79.406)"><path d="M204.043,670.6a18.967,18.967,0,0,1-18.316-3.226c-6.415-5.385-8.427-14.253-10.063-22.466l-4.841-24.3,10.134,6.978c7.288,5.018,14.74,10.2,19.786,17.466s7.247,17.191,3.194,25.056" transform="translate(0.887 -358.251)" fill="#e6e6e6"/><path d="M190.9,707.442c1.276-9.293,2.588-18.706,1.691-28.1-.795-8.342-3.34-16.487-8.521-23.169a38.544,38.544,0,0,0-9.889-8.961c-.989-.624-1.9.943-.914,1.564a36.642,36.642,0,0,1,14.495,17.488c3.156,8.026,3.662,16.775,3.119,25.3-.329,5.156-1.027,10.278-1.728,15.394a.939.939,0,0,0,.633,1.114.911.911,0,0,0,1.114-.633Z" transform="translate(12.469 -363.984)" fill="#f2f2f2"/><path d="M228.846,700.926a13.963,13.963,0,0,1-12.166,6.281c-6.16-.292-11.294-4.59-15.914-8.671l-13.67-12.07,9.047-.433c6.506-.312,13.18-.6,19.377,1.4s11.912,6.835,13.045,13.25" transform="translate(-34.663 -372.379)" fill="#e6e6e6"/><path d="M208.281,723.206c-6.141-10.865-13.263-22.941-25.99-26.8a29,29,0,0,0-10.931-1.129c-1.161.1-.871,1.889.287,1.79a26.944,26.944,0,0,1,17.445,4.615c4.919,3.348,8.749,8,11.991,12.939,1.986,3.024,3.764,6.176,5.543,9.324C207.194,724.95,208.856,724.224,208.281,723.206Z" transform="translate(-1.311 -374.406)" fill="#f2f2f2"/><path d="M151.082,545.222h-9.6l-4.568-37.041h14.173Z" transform="translate(-22.553 -203.697)" fill="#ffb6b6"/><path d="M298.75,717.674H279.838a12.053,12.053,0,0,0-12.053,12.052v.392h30.964Z" transform="translate(-167.771 -379.284)" fill="#2f2e41"/><path d="M209.082,545.222h-9.6l-4.568-37.041h14.173Z" transform="translate(-125.984 -203.697)" fill="#ffb6b6"/><path d="M356.75,717.674H337.838a12.053,12.053,0,0,0-12.053,12.052v.392h30.964Z" transform="translate(-271.202 -379.284)" fill="#2f2e41"/><path d="M309.685,481.206a8.415,8.415,0,0,1,1.968-12.752l15.628-75.031,17.026,6.708-20.715,71.644a8.46,8.46,0,0,1-13.906,9.431Z" transform="translate(-244.509 -309.018)" fill="#ffb6b6"/><path d="M326.371,485.694l7.078,7.185s7.589,27.81-6.933,62.107l-9.713,99.44-17.475,1.316-5.217-115.69-24.071,38.4,4.2,76.877-19.317-.444L246.2,569.7l23.843-88.892Z" transform="translate(-187.542 -327.955)" fill="#2f2e41"/><path d="M330.855,369.444l-6.969-8.736s-12.217-8.355-16.084,9.548-11.05,46.967-11.05,46.967l23.889,1.935Z" transform="translate(-222.565 -301.507)" fill="url(#b)"/><path d="M244.394,482.206a8.415,8.415,0,0,0-1.968-12.752L226.8,394.422l-17.026,6.708,20.715,71.644a8.46,8.46,0,0,0,13.906,9.431Z" transform="translate(-70.066 -309.235)" fill="#ffb6b6"/><path d="M283.47,469.149a270.974,270.974,0,0,0,31.88-2.106l.426-.057-10.548-46.36,3.632-59.649-34.3-1.175a12.6,12.6,0,0,0-12.928,10.781l-7.02,47.59L248.118,460.4l.087.127C252.872,467.365,268.474,469.149,283.47,469.149Z" transform="translate(-169.391 -301.731)" fill="url(#b)"/><path d="M223.947,370.444l6.969-8.736s12.217-8.355,16.084,9.548,11.05,46.967,11.05,46.967l-23.889,1.935Z" transform="translate(-92.731 -301.724)" fill="url(#b)"/><path d="M246,335.016h45.431a3.529,3.529,0,0,0,3.525-3.525V311.909a26.24,26.24,0,1,0-52.481,0v19.582A3.529,3.529,0,0,0,246,335.016Z" transform="translate(-144.157 -285.668)" fill="#2f2e41"/><circle cx="19.239" cy="19.239" r="19.239" transform="translate(100.307 9.691)" fill="#ffb6b6"/><path d="M259.4,315.817h27.78l.285-3.988,1.424,3.988h4.278l.565-7.9,2.823,7.9h8.277v-.392a20.781,20.781,0,0,0-20.757-20.757h-3.917A20.781,20.781,0,0,0,259.4,315.425Z" transform="translate(-167.291 -287.618)" fill="#2f2e41"/><path d="M258.406,343.026a3.592,3.592,0,0,0,.624-.055l20.342-3.589V305.763H256.979l.554.646c7.713,9,1.9,23.582-2.248,31.477a3.473,3.473,0,0,0,.276,3.687A3.511,3.511,0,0,0,258.406,343.026Z" transform="translate(-138.285 -290.023)" fill="#2f2e41"/><path d="M134.783,733.36H368.99a.783.783,0,1,0,0-1.567H134.783a.783.783,0,1,0,0,1.567Z" transform="translate(-134 -382.344)" fill="#cacaca"/></g><g transform="translate(0 55.172)"><path d="M802.233,545.222h9.6l4.569-37.041H802.231Z" transform="translate(-714.757 -179.463)" fill="#f0d3bd"/><path d="M917.92,730.117h30.964v-.392a12.053,12.053,0,0,0-12.051-12.052H917.919Z" transform="translate(-832.892 -355.05)" fill="#2f2e41"/><path d="M846.233,545.222h9.6l4.569-37.041H846.231Z" transform="translate(-793.222 -179.463)" fill="#f0d3bd"/><path d="M961.92,730.117h30.964v-.392a12.053,12.053,0,0,0-12.051-12.052H961.919Z" transform="translate(-911.358 -355.05)" fill="#2f2e41"/><path d="M849.287,386.364a8.927,8.927,0,0,1-13.656.936l-19,7.42L809.3,384.272l26.981-10.1a8.975,8.975,0,0,1,13,12.193Z" transform="translate(-649.967 -280.157)" fill="#f0d3bd"/><path d="M835.677,304.925l25.019,8.161-8.358,177.179-19.308.478-9.881-124.95L820.9,490.25l-23.874,1.316-8.8-186.641Z" transform="translate(-748.08 -135.418)" fill="#2f2e41"/><path d="M993.58,333.933l-64.211-13.951-7.14,55.289,5.946,26.418-2.382,40.147s50.772,25.27,75.925,4.7c0,0-20.216-53.1-8.5-77.957Z" transform="translate(-889.102 -268.871)" fill="url(#e)"/><path d="M838.648,345.608l11.12-7.82s.657-.91,9.924,9.924,28.066,28.066,28.066,28.066l31.332-11.749,5.708,21.09-36.414,16.969-51.554-34.43Z" transform="translate(-745.29 -272.725)" fill="url(#e)"/><path d="M1017.044,491.03a8.927,8.927,0,0,1-3.463-13.243L1002.75,460.5l8.9-9.144,14.952,24.627a8.975,8.975,0,0,1-9.558,15.046Z" transform="translate(-980.362 -297.34)" fill="#f0d3bd"/><path d="M1051.4,330.79,1041.386,319.9s-11.159-3.886-20.276,16.195-19.3,60.812-19.3,60.812l23.808,45.86,18.49-8.262-18.49-37.922L1045.19,368.5Z" transform="translate(-1001.121 -268.787)" fill="url(#e)"/><ellipse cx="20.843" cy="20.843" rx="20.843" ry="20.843" transform="translate(85.557 56.572) rotate(-151.337)" fill="#f0d3bd"/><path d="M943.781,266.369l-1.01-2.034,5.084-2.526s5.609-9.126,15.758-6.562,14.716,4.1,14.716,4.1L983.4,261.9l-2.545,2.533,4.566,1.535-3.051,1.516,3.549,2.04L984.01,279.98s-3.174-7.932-9.275-4.9-17.261-1.567-17.261-1.567l-9.7,18.764s-2-6.578-5.566-4.824C942.211,287.453,933.1,272.944,943.781,266.369Z" transform="translate(-886.122 -254.744)" fill="#2f2e41"/><path d="M835.783,733.359h179.375a.783.783,0,1,0,0-1.567H835.783a.783.783,0,1,0,0,1.567Z" transform="translate(-835 -358.11)" fill="#cacaca"/></g></g></svg>