<svg xmlns="http://www.w3.org/2000/svg" xmlns:xlink="http://www.w3.org/1999/xlink" width="937" height="485.517" viewBox="0 0 937 485.517"><defs><linearGradient id="a" x1="0.5" x2="0.5" y2="1" gradientUnits="objectBoundingBox"><stop offset="0" stop-color="#ff4d4d"/><stop offset="1" stop-color="#f9cb28"/></linearGradient></defs><g transform="translate(0 0)"><rect width="277.23" height="491.454" transform="translate(333.537 272.434) rotate(-74.21)" fill="#3f3d56"/><circle cx="3.917" cy="3.917" r="3.917" transform="translate(413.23 12.909)" fill="#fe5949"/><circle cx="3.917" cy="3.917" r="3.917" transform="translate(425.291 16.32)" fill="#fe5949"/><circle cx="3.917" cy="3.917" r="3.917" transform="translate(437.351 19.73)" fill="#fe5949"/><path d="M801.649,374.348a45.756,45.756,0,0,0-19.11.451,45.673,45.673,0,0,0,1.351-19.31,45.407,45.407,0,0,0-17.082,11.023,45.4,45.4,0,0,0-8.78-18.337,45.676,45.676,0,0,0-8.961,17.158,45.757,45.757,0,0,0-16.045-10.392s-2.852,14.506,4.015,26.41c6.112,10.594,17.855,15.552,20.365,16.515l.059.071.031-.036c.255.1.4.146.4.146s.054-.279.128-.776l.141-.175c.01.079.019.151.028.223-.2.463-.3.728-.3.728s.147.033.415.084l.008.047.087-.029c2.643.494,15.243,2.42,26-3.4C796.482,388.2,801.649,374.348,801.649,374.348Z" transform="translate(-141.693 -199.405)" fill="#faa832"/><circle cx="10.183" cy="10.183" r="10.183" transform="translate(626.335 117.521)" fill="#faa832"/><rect width="318.031" height="6.919" transform="translate(458.355 173.378) rotate(15.79)" fill="#faa433"/><rect width="54.833" height="54.833" transform="translate(477.619 214.644) rotate(15.79)" fill="#faa832"/><rect width="54.833" height="54.833" transform="translate(575.611 242.353) rotate(15.79)" fill="#faa832"/><rect width="54.833" height="54.833" transform="translate(673.602 270.064) rotate(15.79)" fill="#faa832"/><rect width="40.733" height="4.7" transform="translate(466.499 279.88) rotate(15.79)" fill="#faa433"/><rect width="40.733" height="4.7" transform="translate(564.49 307.589) rotate(15.79)" fill="#faa433"/><rect width="40.733" height="4.7" transform="translate(662.48 335.299) rotate(15.79)" fill="#faa433"/><ellipse cx="262.142" cy="9.692" rx="262.142" ry="9.692" transform="translate(5.169 356.292)" fill="#d0cde1"/><ellipse cx="203.991" cy="9.692" rx="203.991" ry="9.692" transform="translate(529.018 466.133)" fill="#d0cde1"/><path d="M778.172,621h58.851v24.611H802.784v24.611h34.242v24.61H778.172Zm70.623,0h58.853v21.4H873.406v4.28h34.241V695.9H848.8V673.43h34.241v-4.28H848.793V621Zm70.624,0h58.852v21.4H944.03v4.28h34.241V695.9H919.419V673.43H953.66v-4.28H919.421V621Z" transform="translate(-145.213 -220.402)" fill="#3f3d56"/><path d="M220.926,499H245.2v23.986h22.209V499h24.279v72.636H267.415V547.314H245.206v24.323H220.928V499Zm102.692,24.088h-21.37V499h67.036v24.088H347.9v48.548H323.622V523.088h0ZM379.922,499h25.315l15.572,25.522L436.366,499h25.325v72.636H437.512v-36l-16.7,25.827h-.419l-16.714-25.827v36H379.922Zm93.851,0h24.286v48.628H532.2v24.009H473.772V499Z" transform="translate(-102.325 -211.013)" fill="#3f3d56"/><path d="M81.868,366.091l-1.992,22.584,15.941-1.329V368.084Z" transform="translate(-6.148 -28.176)" fill="#ffb8b8"/><path d="M65.04,366.091l1.993,22.584-15.941-1.329V368.084Z" transform="translate(-3.932 -28.176)" fill="#ffb8b8"/><path d="M197.8,365.276s5.314,31.882,5.314,36.532-1.993,34.539-5.314,40.517-3.985,8.635-2.657,11.292.664,1.993,0,3.985-1.993,1.328,0,3.985a6.979,6.979,0,0,1,0,7.971c-1.328,1.993,2.657,55.794-2.657,59.78s-6.642,17.27-6.642,17.27l-17.27-1.993V530s-3.985-10.628-1.328-17.27,3.985-41.846,3.985-41.846-.664-3.321,0-5.314,0-3.321-1.328-3.985-1.993-3.321-1.993-3.321l-1.993-48.488L157.95,457.6s7.971,65.093,0,73.728v15.277H140.681L143.338,530s-5.314-15.277-2.657-18.6-7.971-56.458-6.642-58.451.664-2.657,0-3.985-2.657-2.657-1.993-3.985,0-3.985,0-3.985-12.62-62.436-6.642-68.414S197.8,365.276,197.8,365.276Z" transform="translate(-94.85 -200.721)" fill="#2f2e41"/><path d="M175.84,567.816s1.328-6.37,11.956-4.182c0,0,2.657,5.51,2.657,8.167s2.657,20.591,2.657,20.591,10.627,17.934-2.657,17.934-17.934-4.65-18.6-9.3.664-5.978-1.993-7.971-3.985-1.993-3.321-4.65,1.993-15.941,1.993-15.941.664-9.963,4.317-7.307l3.653,2.657" transform="translate(-98.126 -215.952)" fill="#2f2e41"/><path d="M154.705,567.816s-1.328-6.37-11.956-4.182c0,0-2.657,5.51-2.657,8.167s-2.657,20.591-2.657,20.591-10.627,17.934,2.657,17.934,17.934-4.65,18.6-9.3-.664-5.978,1.993-7.971,3.985-1.993,3.321-4.65-1.993-15.941-1.993-15.941-.664-9.963-4.317-7.307l-3.653,2.657" transform="translate(-95.59 -215.952)" fill="#2f2e41"/><circle cx="17.934" cy="17.934" r="17.934" transform="translate(60.444 6.471)" fill="#ffb8b8"/><path d="M160.795,216.319s-7.306,28.561-8.635,29.226,30.554,3.321,30.554,3.321-7.971-24.576,0-28.561Z" transform="translate(-97.03 -189.256)" fill="#ffb8b8"/><path d="M154.637,235.175v0l-21.9,15.145,3.985,118.894s29.226-3.321,35.868-2.657,27.9-5.978,27.9-5.978l-9.31-111.72a9.177,9.177,0,0,0-8.5-8.392l-3.989-.281s-3.985,9.867-15.975,4.776A13.99,13.99,0,0,1,154.637,235.175Z" transform="translate(-95.538 -190.707)" fill="#3f3d56"/><path d="M153.887,234l-27.082,12.9-5.314,76.385s-10.627,45.831-1.993,59.115,23.248,14.613,23.248,14.613,19.262-76.385,13.949-102.289S153.887,234,153.887,234Z" transform="translate(-94.259 -190.617)" fill="url(#a)"/><path d="M101.741,358.8v9.963s-3.985,21.919,8.635,21.255,6.642-23.912,6.642-23.912l-3.985-7.306Z" transform="translate(-93.106 -200.222)" fill="#ffb8b8"/><path d="M227.276,380.276l-1.328,11.292s6.642,22.583-5.978,23.248-3.46-23.109-3.46-23.109l4.124-12.759Z" transform="translate(-101.738 -201.773)" fill="#ffb8b8"/><path d="M181.8,238.085h0a78.224,78.224,0,0,1,32.711,17l.115.1-9.3,49.152L204,322.275s24.576,87.677-3.985,75.057c0,0-24.576-76.385-21.255-111.589S181.8,238.085,181.8,238.085Z" transform="translate(-99.056 -190.932)" fill="url(#a)"/><path d="M207.751,255.882c.664-.664,8.635.923,8.635.923S231,308.356,231,316.99s1.993,57.787,1.993,57.787l-17.533,1.767-14.192-68.292Z" transform="translate(-100.812 -192.289)" fill="url(#a)"/><path d="M129.633,247.981h-4.65s-13.284,5.314-13.949,11.292-18.6,66.422-18.6,66.422l4.65,30.554,17.27-2.657,3.321-33.875,17.27-37.2Z" transform="translate(-92.436 -191.693)" fill="url(#a)"/><path d="M171.932,216.411l.688-4.793c.16-1.117.814-2.586,1.9-2.282.924.258,2.939,1.05,3.276.811,1.263-.895,3.174.67,4.5-.125.556-.333.919-1.046,1.566-1.094a1.784,1.784,0,0,1,1.15.521,7.825,7.825,0,0,0,2.976,1.617,3.2,3.2,0,0,0,3.133-.854,1.664,1.664,0,0,1,.554-.531,1.243,1.243,0,0,1,.8.037l3.393.924a13.038,13.038,0,0,0-1.744-10.735,21.592,21.592,0,0,0-4.942-4.84q-3.152-2.4-6.506-4.511a21.13,21.13,0,0,0-7.9-3.439c-2.861-.435-6.065.343-7.865,2.609a5.065,5.065,0,0,1-1.822-2.461,1.864,1.864,0,0,0,.12,2.858l-2.87-1.833c-.807.847.769,2.383.082,3.329a1.754,1.754,0,0,1-.773.5,13.155,13.155,0,0,0-4.208,2.648,15.7,15.7,0,0,0-3.314,6.1c-1.71,4.906-2.953,10.532-.523,15.124.275.521,3.911,9.114,4.4,9.449,1.637,1.133.572-1.609,1.745,0,.92,1.261.748-3.566,2.115-2.507a3.409,3.409,0,0,0,3.71.167c.567-.393.384-2.576.078-4.581a2.362,2.362,0,0,1,2.874-2.657C170.221,216.271,171.9,216.614,171.932,216.411Z" transform="translate(-97.039 -187)" fill="#2f2e41"/><path d="M117.655,134.02l7.306,60.444h-4.649Z" transform="translate(-9.055 -10.315)" opacity="0.2"/><path d="M33.873,108.834l-3.694,23.248,7.015-23.248H33.873Z" transform="translate(-2.323 -8.376)" opacity="0.2"/></g></svg>